<svg xmlns="http://www.w3.org/2000/svg" viewBox="0 0 64 64" width="64" height="64" shape-rendering="crispEdges">
  <defs>
    <linearGradient id="bg" x1="0" y1="0" x2="1" y2="1"><stop offset="0" stop-color="#2a1d5c"/><stop offset="1" stop-color="#5b2d8c"/></linearGradient>
  </defs>
  <rect width="64" height="64" rx="14" fill="url(#bg)"/>
  <g fill="#ff4f6d"><rect x="4" y="50" width="56" height="3"/></g>
  <g fill="#ffd23f"><rect x="4" y="53" width="56" height="3"/></g>
  <g fill="#7ef0c8"><rect x="4" y="56" width="56" height="3"/></g>
  <g fill="#62f4ff"><rect x="4" y="59" width="56" height="1"/></g>
  <rect x="14" y="10" width="8" height="10" fill="#ff9a3d"/>
  <rect x="42" y="10" width="8" height="10" fill="#ff9a3d"/>
  <rect x="16" y="13" width="4" height="6" fill="#ffcf8f"/>
  <rect x="44" y="13" width="4" height="6" fill="#ffcf8f"/>
  <rect x="12" y="18" width="40" height="28" fill="#ff9a3d"/>
  <rect x="12" y="18" width="40" height="4" fill="#ffb36b"/>
  <rect x="22" y="18" width="4" height="6" fill="#d9752a"/>
  <rect x="38" y="18" width="4" height="6" fill="#d9752a"/>
  <rect x="14" y="26" width="36" height="9" fill="#1c1a33"/>
  <rect x="17" y="28" width="11" height="5" fill="#62f4ff"/>
  <rect x="36" y="28" width="11" height="5" fill="#ff4fd8"/>
  <rect x="19" y="29" width="3" height="2" fill="#ffffff"/>
  <rect x="38" y="29" width="3" height="2" fill="#ffffff"/>
  <rect x="22" y="36" width="20" height="10" fill="#ffe3c7"/>
  <rect x="30" y="37" width="4" height="3" fill="#ff6f91"/>
  <rect x="27" y="41" width="10" height="2" fill="#1c1a33"/>
</svg>
